<svg xmlns="http://www.w3.org/2000/svg" xmlns:xlink="http://www.w3.org/1999/xlink" viewBox="0 0 72 66" xmlns:v="https://vecta.io/nano"><defs><path id="A" d="M10.9 7.3C10 11.1 9.6 15 9.6 19.1c0 19.6 10.7 36.8 26.5 45.9C52 55.8 62.6 38.7 62.6 19.1c0-4-.5-8-1.3-11.8C53.8 3.3 45.2 1 36.1 1S18.4 3.3 10.9 7.3z"/></defs><clipPath id="B"><use xlink:href="#A"/></clipPath><g clip-path="url(#B)"><circle cx="24.3" cy="24" r="25.8" fill="#0d6eff"/><circle cx="47.5" cy="24" r="25.8" fill="#155eca"/><circle cx="35.9" cy="39.2" r="25.8" fill="#6ca7ff"/><path d="M22.7 17c-.6 2.2-1 4.6-1 7 0 10.1 5.8 18.8 14.2 23.1 8.4-4.3 14.2-13 14.2-23.1 0-2.4-.3-4.8-1-7-3.9-2.3-8.4-3.7-13.3-3.7s-9.3 1.4-13.1 3.7z" fill="#fff"/></g><g fill="#0648ff"><path d="M49.2 17l-4.2-.2a9.42 9.42 0 0 0-6.3 2.1c-1 .9-1.8 2-2.2 3.3l-3.9 12.5c-.8 2.4-3.1 4-5.7 4h-.6c.4.6 1.5 2 1.8 2.2 3.2-.3 5.6-2.4 6.7-5.6l4-12.3c.3-.9.8-1.6 1.5-2.2 1.3-1.1 2.9-1.6 4.6-1.6l4.8.2c0-.4-.4-2.1-.5-2.4z"/><path d="M30.1 25.3h11.3v2.3H30.1zm0 5.1h11.3v2.3H30.1z"/></g></svg>