<?xml version="1.0" encoding="utf-8"?>
<!-- Generator: Adobe Illustrator 24.3.0, SVG Export Plug-In . SVG Version: 6.00 Build 0)  -->
<svg version="1.1" id="Layer_1" xmlns="http://www.w3.org/2000/svg" xmlns:xlink="http://www.w3.org/1999/xlink" x="0px" y="0px"
	 viewBox="0 0 72 66" style="enable-background:new 0 0 72 66;" xml:space="preserve">
<style type="text/css">
	.st0{clip-path:url(#SVGID_2_);}
	.st1{fill:#0D6EFF;}
	.st2{fill:#155ECA;}
	.st3{fill:#6CA7FF;}
	.st4{fill:#FFFFFF;}
	.st5{fill:#0648FF;}
	.st6{fill:#1D1D1B;}
	.st7{font-family:'SuisseIntl-Semibold';}
	.st8{font-size:14.6553px;}
</style>
<g>
	<g>
		<g>
			<defs>
				<path id="SVGID_1_" d="M10.9,7.3c-0.9,3.8-1.3,7.7-1.3,11.8c0,19.6,10.7,36.8,26.5,45.9c15.9-9.2,26.5-26.3,26.5-45.9
					c0-4-0.5-8-1.3-11.8C53.8,3.3,45.2,1,36.1,1S18.4,3.3,10.9,7.3z"/>
			</defs>
			<clipPath id="SVGID_2_">
				<use xlink:href="#SVGID_1_"  style="overflow:visible;"/>
			</clipPath>
			<g class="st0">
				<circle class="st1" cx="24.3" cy="24" r="25.8"/>
				<circle class="st2" cx="47.5" cy="24" r="25.8"/>
				<circle class="st3" cx="35.9" cy="39.2" r="25.8"/>
				<path class="st4" d="M22.7,17c-0.6,2.2-1,4.6-1,7c0,10.1,5.8,18.8,14.2,23.1c8.4-4.3,14.2-13,14.2-23.1c0-2.4-0.3-4.8-1-7
					c-3.9-2.3-8.4-3.7-13.3-3.7S26.5,14.7,22.7,17z"/>
			</g>
		</g>
		<g>
			<path class="st5" d="M49.2,17L45,16.8c-2.3-0.1-4.6,0.7-6.3,2.1c-1,0.9-1.8,2-2.2,3.3l-3.9,12.5c-0.8,2.4-3.1,4-5.7,4h-0.6
				c0.4,0.6,1.5,2,1.8,2.2c3.2-0.3,5.6-2.4,6.7-5.6L38.8,23c0.3-0.9,0.8-1.6,1.5-2.2c1.3-1.1,2.9-1.6,4.6-1.6l4.8,0.2
				C49.7,19,49.3,17.3,49.2,17z"/>
			<g>
				<rect x="30.1" y="25.3" class="st5" width="11.3" height="2.3"/>
				<rect x="30.1" y="30.4" class="st5" width="11.3" height="2.3"/>
			</g>
		</g>
	</g>
</g>
</svg>
